<svg width="53" height="80" viewBox="0 0 53 80" fill="none" xmlns="http://www.w3.org/2000/svg">
<g clip-path="url(#clip0_129_6)">
<path d="M13.2526 80C20.5651 80 26.5 74.0267 26.5 66.6667V53.3333H13.2526C5.94006 53.3333 0.00524902 59.3067 0.00524902 66.6667C0.00524902 74.0267 5.94006 80 13.2526 80Z" fill="#0ACF83"/>
<path d="M0.00524902 40C0.00524902 32.64 5.94006 26.6667 13.2526 26.6667H26.5V53.3333H13.2526C5.94006 53.3333 0.00524902 47.36 0.00524902 40Z" fill="#A259FF"/>
<path d="M0.00537109 13.3333C0.00537109 5.97333 5.94018 0 13.2527 0H26.5001V26.6667H13.2527C5.94018 26.6667 0.00537109 20.6933 0.00537109 13.3333Z" fill="#F24E1E"/>
<path d="M26.5 0H39.7474C47.0599 0 52.9947 5.97333 52.9947 13.3333C52.9947 20.6933 47.0599 26.6667 39.7474 26.6667H26.5V0Z" fill="#FF7262"/>
<path d="M52.9947 40C52.9947 47.36 47.0599 53.3333 39.7474 53.3333C32.4348 53.3333 26.5 47.36 26.5 40C26.5 32.64 32.4348 26.6667 39.7474 26.6667C47.0599 26.6667 52.9947 32.64 52.9947 40Z" fill="#1ABCFE"/>
</g>
<defs>
<clipPath id="clip0_129_6">
<rect width="53" height="80" fill="white"/>
</clipPath>
</defs>
</svg>
