<svg width="78" height="78" viewBox="0 0 78 78" fill="none" xmlns="http://www.w3.org/2000/svg">
<g clip-path="url(#clip0_129_31)">
<path d="M76.529 35.5251L42.4734 1.47137C40.5134 -0.489899 37.3324 -0.489899 35.3699 1.47137L28.2982 8.54317L37.2691 17.5141C39.3537 16.8096 41.7443 17.2822 43.4061 18.944C45.0758 20.6164 45.545 23.0274 44.8235 25.1188L53.469 33.7646C55.5607 33.044 57.9741 33.5102 59.6447 35.1835C61.9795 37.5174 61.9795 41.3001 59.6447 43.6356C57.3093 45.9713 53.5266 45.9713 51.1899 43.6356C49.4337 41.8775 48.9998 39.2983 49.8889 37.1347L41.8263 29.0721L41.8254 50.2896C42.4098 50.5786 42.9437 50.9604 43.4061 51.42C45.7409 53.7539 45.7409 57.5369 43.4061 59.8742C41.0707 62.2087 37.2861 62.2087 34.9541 59.8742C32.6192 57.5369 32.6192 53.7542 34.9541 51.4203C35.5136 50.8605 36.1785 50.4172 36.9104 50.116V28.7007C36.1775 28.4015 35.5121 27.9579 34.9541 27.3963C33.185 25.6297 32.7597 23.0341 33.6661 20.862L24.8229 12.0178L1.47164 35.3676C-0.490547 37.3307 -0.490547 40.5119 1.47164 42.4735L35.5278 76.5278C37.4884 78.4894 40.6688 78.4894 42.6319 76.5278L76.5287 42.6316C78.4902 40.6694 78.4905 37.4864 76.529 35.5251Z" fill="#DE4C36"/>
</g>
<defs>
<clipPath id="clip0_129_31">
<rect width="78" height="78" fill="white"/>
</clipPath>
</defs>
</svg>
