<svg width="79" height="78" viewBox="0 0 79 78" fill="none" xmlns="http://www.w3.org/2000/svg">
<g clip-path="url(#clip0_130_41)">
<path fill-rule="evenodd" clip-rule="evenodd" d="M39.4969 0.960518C17.6873 0.960518 0 18.4216 0 39.9623C0 57.1911 11.3171 71.8101 27.0135 76.9696C28.9898 77.3266 29.71 76.1221 29.71 75.0878C29.71 74.1612 29.6756 71.7095 29.655 68.4557C18.6677 70.8116 16.3496 63.2269 16.3496 63.2269C14.5527 58.721 11.9629 57.5215 11.9629 57.5215C8.37642 55.1033 12.2344 55.1511 12.2344 55.1511C16.1991 55.4266 18.2845 59.171 18.2845 59.171C21.8079 65.1301 27.5307 63.4089 29.781 62.4105C30.1398 59.8918 31.1608 58.1727 32.2883 57.1982C23.5175 56.2118 14.2955 52.8671 14.2955 37.9224C14.2955 33.6632 15.8354 30.1843 18.3621 27.4573C17.9545 26.4709 16.5992 22.506 18.7505 17.1358C18.7505 17.1358 22.0653 16.0872 29.6116 21.1319C32.7616 20.2675 36.1419 19.8365 39.5004 19.8198C42.8565 19.8334 46.2344 20.2677 49.3891 21.1319C56.9306 16.0872 60.2406 17.1358 60.2406 17.1358C62.3963 22.506 61.0408 26.4709 60.6358 27.4573C63.1674 30.1843 64.6951 33.6632 64.6951 37.9224C64.6951 52.9054 55.4586 56.2021 46.6611 57.1669C48.0772 58.3712 49.3406 60.7512 49.3406 64.3905C49.3406 69.6026 49.2925 73.8092 49.2925 75.0878C49.2925 76.1316 50.0054 77.3456 52.0084 76.9648C67.6927 71.7958 79 57.1887 79 39.9623C79 18.4216 61.3138 0.960518 39.4969 0.960518Z" fill="white"/>
</g>
<defs>
<clipPath id="clip0_130_41">
<rect width="79" height="78" fill="white"/>
</clipPath>
</defs>
</svg>
