<svg width="80" height="80" viewBox="0 0 80 80" fill="none" xmlns="http://www.w3.org/2000/svg">
<g clip-path="url(#clip0_129_38)">
<path d="M57.9786 27.7621L57.9494 27.7496C57.9327 27.7433 57.916 27.737 57.9014 27.7224C57.8528 27.6703 57.8312 27.5986 57.8429 27.5284L59.4575 17.668L67.0291 25.2333L59.1546 28.58C59.1327 28.5888 59.1093 28.593 59.0857 28.5925H59.0543C59.0439 28.5862 59.0334 28.5779 59.0126 28.557C58.7195 28.2311 58.3691 27.9616 57.9786 27.7621ZM68.9611 27.1612L77.057 35.2482C78.7384 36.9298 79.5802 37.7686 79.8872 38.7408C79.9332 38.8848 79.9708 39.0288 80 39.1769L60.6522 30.9919C60.6418 30.9876 60.6314 30.9834 60.6209 30.9793C60.5436 30.9481 60.4538 30.9126 60.4538 30.8333C60.4538 30.754 60.5457 30.7165 60.623 30.6852L60.648 30.6747L68.9611 27.1612ZM79.67 41.7724C79.2522 42.5569 78.4376 43.3706 77.0591 44.7497L67.9314 53.8653L56.126 51.4096L56.0633 51.3971C55.9589 51.3804 55.8482 51.3616 55.8482 51.2677C55.7575 50.2844 55.262 49.3828 54.48 48.7786C54.432 48.7306 54.4445 48.6555 54.4592 48.5867C54.4592 48.5762 54.4592 48.5658 54.4633 48.5575L56.6836 34.9415L56.692 34.8956C56.7045 34.7912 56.7233 34.6702 56.8173 34.6702C57.7785 34.5508 58.6514 34.0509 59.2402 33.2828C59.259 33.2619 59.2716 33.2389 59.2966 33.2264C59.3635 33.1951 59.4428 33.2264 59.5118 33.2556L79.6679 41.7724H79.67ZM65.8322 55.9622L50.8227 70.9552L53.3918 55.1819L53.396 55.161C53.3981 55.1401 53.4023 55.1193 53.4085 55.1005C53.4294 55.0504 53.4837 55.0295 53.5359 55.0087L53.561 54.9983C54.1235 54.7585 54.6211 54.3888 55.0127 53.9196C55.0628 53.8612 55.1234 53.8048 55.2006 53.7944C55.2207 53.7911 55.2412 53.7911 55.2612 53.7944L65.8301 55.9643L65.8322 55.9622ZM47.6458 74.1287L45.9539 75.8187L27.2494 48.8162C27.2427 48.8063 27.2357 48.7966 27.2285 48.787C27.1993 48.7473 27.168 48.7077 27.1742 48.6618C27.1763 48.6284 27.1972 48.5992 27.2202 48.5742L27.2411 48.547C27.2975 48.4636 27.3455 48.3801 27.3977 48.2904L27.4395 48.2174L27.4458 48.2111C27.475 48.161 27.5022 48.1131 27.5523 48.0859C27.5961 48.0651 27.6567 48.0734 27.7048 48.0838L48.4269 52.3527C48.4849 52.3617 48.5395 52.3854 48.5857 52.4215C48.6128 52.4486 48.6191 52.4779 48.6254 52.5112C48.9184 53.6186 49.7127 54.5256 50.7726 54.9628C50.8311 54.992 50.806 55.0567 50.7788 55.1255C50.7653 55.1557 50.7548 55.1872 50.7475 55.2194C50.4864 56.8051 48.2473 70.4461 47.6458 74.1287ZM44.1116 77.6568C42.8647 78.8899 42.1294 79.5429 41.2981 79.8058C40.4785 80.0647 39.5988 80.0647 38.7791 79.8058C37.8058 79.497 36.964 78.6583 35.2826 76.9766L16.4988 58.2134L21.4052 50.6126C21.4282 50.575 21.4511 50.5416 21.4887 50.5145C21.541 50.477 21.6161 50.4937 21.6788 50.5145C22.805 50.8539 24.0141 50.7927 25.1001 50.3414C25.1565 50.3205 25.2129 50.3059 25.2568 50.3455C25.2787 50.3655 25.2983 50.3879 25.3153 50.4123L44.1116 77.6589V77.6568ZM14.6879 56.4045L10.3788 52.1002L18.8883 48.474C18.91 48.4645 18.9335 48.4596 18.9572 48.4594C19.0282 48.4594 19.07 48.5303 19.1076 48.595C19.1931 48.7264 19.2837 48.8545 19.3791 48.9789L19.4063 49.0123C19.4313 49.0478 19.4146 49.0832 19.3896 49.1166L14.69 56.4045H14.6879ZM8.47184 50.1953L3.02029 44.7497C2.0929 43.8234 1.42033 43.1515 0.952456 42.5736L17.5285 46.0079C17.5493 46.0117 17.5702 46.0152 17.5912 46.0183C17.6935 46.035 17.8063 46.0538 17.8063 46.1497C17.8063 46.2541 17.6831 46.302 17.5787 46.3417L17.5306 46.3625L8.47184 50.1953ZM0 39.7736C0.0188907 39.4228 0.0820519 39.0758 0.187985 38.7408C0.497115 37.7686 1.33678 36.9298 3.02029 35.2482L9.99661 28.2795C13.2087 32.9362 16.4295 37.5868 19.659 42.2314C19.7154 42.3065 19.7781 42.39 19.7133 42.4526C19.4084 42.7885 19.1034 43.1557 18.8883 43.5542C18.8649 43.6054 18.829 43.6499 18.7838 43.6836C18.7567 43.7003 18.7274 43.694 18.6961 43.6878H18.6919L0 39.7715V39.7736ZM11.8639 26.4143L21.2444 17.0441C22.1258 17.4301 25.3341 18.7842 28.204 19.9943C30.3762 20.9124 32.3563 21.7469 32.9788 22.0182C33.0414 22.0432 33.0978 22.0682 33.125 22.1308C33.1417 22.1684 33.1333 22.2164 33.125 22.256C32.8234 23.63 33.2339 25.0633 34.2174 26.07C34.28 26.1326 34.2174 26.2223 34.1631 26.2995L34.1338 26.3433L24.6093 41.0797C24.5842 41.1215 24.5612 41.1569 24.5195 41.184C24.4693 41.2153 24.3983 41.2007 24.3398 41.1861C23.9694 41.0892 23.5886 41.0373 23.2057 41.0317C22.8631 41.0317 22.4913 41.0943 22.1153 41.1632H22.1133C22.0715 41.1694 22.0339 41.1778 22.0005 41.1527C21.9636 41.1226 21.9318 41.0867 21.9065 41.0463L11.8639 26.4143ZM23.1388 15.1517L35.2826 3.02128C36.964 1.34171 37.8058 0.500883 38.7791 0.194178C39.5988 -0.0647262 40.4785 -0.0647262 41.2981 0.194178C42.2715 0.500883 43.1132 1.34171 44.7947 3.02128L47.4264 5.65017L38.7896 19.0116C38.7682 19.0505 38.7391 19.0846 38.7039 19.1118C38.6517 19.1472 38.5786 19.1326 38.516 19.1118C37.1335 18.6927 35.6332 18.9815 34.5056 19.8838C34.4492 19.9422 34.3657 19.9088 34.2947 19.8775C33.1668 19.3872 24.3941 15.6838 23.1388 15.1517ZM49.2603 7.48205L57.2351 15.448L55.3134 27.3365V27.3678C55.3117 27.3948 55.3061 27.4215 55.2967 27.447C55.2758 27.4888 55.2341 27.4971 55.1923 27.5096C54.7814 27.6339 54.3945 27.8265 54.0477 28.0792C54.0328 28.0898 54.0188 28.1017 54.0059 28.1147C53.9829 28.1397 53.9599 28.1627 53.9224 28.1669C53.8918 28.1678 53.8613 28.1628 53.8325 28.1522L41.6804 22.9946L41.6574 22.9842C41.5801 22.9529 41.4882 22.9153 41.4882 22.836C41.4168 22.1596 41.1956 21.5075 40.8407 20.927C40.7822 20.831 40.7175 20.7308 40.7676 20.6328L49.2603 7.48205ZM41.0475 25.4378L52.4394 30.2574C52.502 30.2867 52.571 30.3138 52.5981 30.3785C52.609 30.4174 52.609 30.4585 52.5981 30.4974C52.5647 30.6643 52.5354 30.8542 52.5354 31.0461V31.3653C52.5354 31.4446 52.454 31.478 52.3788 31.5093L52.3558 31.5176C50.5512 32.2875 27.0197 42.3107 26.9842 42.3107C26.9486 42.3107 26.911 42.3107 26.8755 42.2752C26.8129 42.2126 26.8755 42.125 26.9319 42.0457C26.9419 42.032 26.9517 42.0181 26.9612 42.004L36.3228 27.5242L36.3395 27.4992C36.3938 27.4116 36.4565 27.3135 36.5567 27.3135L36.6507 27.3281C36.8638 27.3573 37.0518 27.3844 37.2418 27.3844C38.6622 27.3844 39.9781 26.6938 40.7718 25.5129C40.7907 25.4814 40.8147 25.4532 40.8428 25.4295C40.8992 25.3877 40.9827 25.4086 41.0475 25.4378ZM28.0014 44.6016L53.6508 33.675C53.6508 33.675 53.6884 33.675 53.7239 33.7105C53.8639 33.8503 53.9829 33.9442 54.0978 34.0318L54.1542 34.0673C54.2064 34.0965 54.2586 34.1298 54.2628 34.1841C54.2628 34.205 54.2628 34.2175 54.2586 34.2363L52.0613 47.7187L52.053 47.773C52.0383 47.8773 52.0237 47.9962 51.9255 47.9962C50.7362 48.0764 49.6631 48.7377 49.0577 49.7634L49.0473 49.7801C49.018 49.8281 48.9909 49.874 48.9428 49.899C48.899 49.9199 48.8426 49.9116 48.7966 49.9011L28.3418 45.6865C28.3209 45.6824 28.0243 44.6037 28.0014 44.6016Z" fill="url(#paint0_radial_129_38)"/>
</g>
<defs>
<radialGradient id="paint0_radial_129_38" cx="0" cy="0" r="1" gradientUnits="userSpaceOnUse" gradientTransform="translate(4000 -4000) scale(7999.99)">
<stop stop-color="#20C6B7"/>
<stop offset="1" stop-color="#4D9ABF"/>
</radialGradient>
<clipPath id="clip0_129_38">
<rect width="80" height="80" fill="white"/>
</clipPath>
</defs>
</svg>
