<svg width="127" height="77" viewBox="0 0 127 77" fill="none" xmlns="http://www.w3.org/2000/svg">
<g clip-path="url(#clip0_129_36)">
<path d="M29.9665 20.0922H53.9199V22.0047H32.1623V36.3977H52.6226V38.31H32.1623V54.1122H54.1695V56.0245H29.9665V20.0922ZM56.066 20.0922H58.611L69.8889 35.8944L81.4164 20.092L97.0957 0.0199585L71.336 37.5553L84.6103 56.0245H81.9654L69.8889 39.216L57.7624 56.0245H55.1676L68.5416 37.5551L56.066 20.0922ZM85.5583 22.0047V20.092H112.855V22.0045H100.28V56.0243H98.0839V22.0047H85.5583ZM0 20.092H2.74464L40.5916 76.98L24.9515 56.0243L2.29543 22.8098L2.19571 56.0248H0L0 20.092ZM112.634 53.5347C112.185 53.5347 111.849 53.1859 111.849 52.7344C111.849 52.2834 112.185 51.9341 112.634 51.9341C113.088 51.9341 113.419 52.2832 113.419 52.7344C113.419 53.1856 113.088 53.5347 112.634 53.5347ZM114.792 51.4293H115.967C115.983 52.0684 116.447 52.4982 117.131 52.4982C117.894 52.4982 118.327 52.0363 118.327 51.1715V45.6925H119.523V51.1767C119.523 52.7344 118.626 53.6316 117.141 53.6316C115.747 53.6316 114.792 52.7613 114.792 51.4291V51.4293ZM121.088 51.3596H122.274C122.375 52.0953 123.091 52.5625 124.122 52.5625C125.083 52.5625 125.788 52.0629 125.788 51.3755C125.788 50.7848 125.339 50.4302 124.319 50.1885L123.326 49.9469C121.932 49.619 121.296 48.9423 121.296 47.8036C121.296 46.4233 122.418 45.5046 124.1 45.5046C125.665 45.5046 126.808 46.423 126.877 47.7284H125.713C125.601 47.014 124.981 46.568 124.084 46.568C123.139 46.568 122.509 47.0248 122.509 47.7229C122.509 48.276 122.914 48.5932 123.919 48.8294L124.768 49.0389C126.348 49.4097 127 50.0542 127 51.2198C127 52.7023 125.857 53.6316 124.031 53.6316C122.322 53.6316 121.173 52.7451 121.088 51.3593V51.3596Z" fill="white"/>
</g>
<defs>
<clipPath id="clip0_129_36">
<rect width="127" height="77" fill="white"/>
</clipPath>
</defs>
</svg>
