<svg width="78" height="78" viewBox="0 0 78 78" fill="none" xmlns="http://www.w3.org/2000/svg">
<path d="M39 45.0304C42.3655 45.0304 45.0938 42.3021 45.0938 38.9366C45.0938 35.5711 42.3655 32.8429 39 32.8429C35.6345 32.8429 32.9062 35.5711 32.9062 38.9366C32.9062 42.3021 35.6345 45.0304 39 45.0304Z" fill="#00D8FF"/>
<path d="M39 52.9084C31.6756 53.0855 24.3696 52.0982 17.355 49.9834C14.1146 48.9562 11.0924 47.338 8.44106 45.2107C7.42933 44.484 6.58679 43.547 5.97125 42.464C5.35571 41.3811 4.98174 40.1777 4.875 38.9366C4.875 34.9074 9.3015 30.9587 16.7164 28.3749C23.9185 26.0855 31.4436 24.9759 39 25.0892C46.4556 24.985 53.8798 26.0745 60.9911 28.3164C64.1118 29.3113 67.0316 30.8512 69.615 32.8648C70.6094 33.5576 71.4393 34.4607 72.0459 35.51C72.6525 36.5593 73.0209 37.7291 73.125 38.9366C73.125 43.1242 68.1769 47.3679 60.2063 50.0053C53.3274 52.0513 46.1756 53.0303 39 52.9084ZM39 28.0044C31.7707 27.9078 24.572 28.9626 17.6743 31.1293C10.8493 33.5107 7.79025 36.7672 7.79025 38.9293C7.79025 41.1913 11.0784 44.7476 18.2983 47.2168C25.0089 49.2298 31.9961 50.1669 39 49.9931C45.865 50.1159 52.7083 49.187 59.2922 47.2387C66.7875 44.7549 70.2 41.1937 70.2 38.9366C70.077 38.162 69.7947 37.4214 69.371 36.7615C68.9473 36.1015 68.3913 35.5366 67.7381 35.1024C65.4268 33.3161 62.8185 31.9513 60.0332 31.0708C53.2302 28.935 46.1296 27.8998 39 28.0044Z" fill="#00D8FF"/>
<path d="M25.155 69.3298C24.0179 69.3559 22.8943 69.08 21.8985 68.5303C18.408 66.5169 17.199 60.7108 18.664 52.9961C20.2792 45.6132 23.0778 38.54 26.9515 32.0507C30.5851 25.5404 35.237 19.6534 40.7306 14.6128C43.1515 12.4062 45.9441 10.6459 48.9791 9.41363C50.0769 8.89917 51.2744 8.63248 52.4867 8.63248C53.699 8.63248 54.8965 8.89917 55.9943 9.41363C59.6237 11.505 60.8254 17.9108 59.1313 26.1324C57.4663 33.1148 54.7403 39.8006 51.0486 45.9566C47.5428 52.3901 43.0374 58.2258 37.7008 63.2458C35.1921 65.539 32.2807 67.348 29.1135 68.5815C27.8456 69.0521 26.5073 69.3051 25.155 69.3298ZM29.4767 33.4986C25.7817 39.7126 23.0994 46.4751 21.5305 53.5324C20.1825 60.6377 21.4768 64.9106 23.3586 65.9978C25.3086 67.1263 30.0422 66.0563 35.7898 61.035C40.8843 56.2257 45.1845 50.6396 48.5306 44.4844C52.0673 38.5991 54.6822 32.207 56.2843 25.5304C57.8785 17.7913 56.5013 13.0528 54.5464 11.9267C53.8137 11.646 53.0308 11.5203 52.247 11.5576C51.4633 11.595 50.6958 11.7945 49.9931 12.1436C47.2916 13.2584 44.8079 14.841 42.6563 16.8188C37.4075 21.6469 32.964 27.2828 29.4938 33.5132L29.4767 33.4986Z" fill="#00D8FF"/>
<path d="M52.8377 69.3615C49.5349 69.3615 45.34 67.3628 40.972 63.6066C35.3821 58.5202 30.6516 52.5632 26.9637 45.9664C23.1386 39.5664 20.3621 32.5956 18.7395 25.3183C18.0359 22.1166 17.9055 18.8155 18.3544 15.5683C18.4582 14.3637 18.825 13.1966 19.429 12.1491C20.0329 11.1017 20.8593 10.1996 21.8498 9.50625C25.4744 7.40756 31.6242 9.56475 37.9007 15.1369C43.1184 20.066 47.5493 25.7661 51.0389 32.0385C54.8616 38.2891 57.6672 45.1072 59.3507 52.2381C60.0847 55.5572 60.1979 58.9836 59.6847 62.3439C59.5626 63.5832 59.1739 64.7814 58.5453 65.8563C57.9168 66.9313 57.0632 67.8576 56.043 68.5718C55.0636 69.1146 53.9573 69.3872 52.8377 69.3615ZM29.4865 44.499C33.0243 50.8034 37.5431 56.5046 42.8732 61.3884C48.3552 66.105 52.7037 67.119 54.5732 66.0197C56.5232 64.8863 57.9614 60.2599 56.4794 52.7743C54.8557 45.9662 52.1647 39.458 48.5063 33.4913C45.1763 27.488 40.947 22.0298 35.9654 17.3063C30.0569 12.0608 25.2647 10.8883 23.3123 12.0193C22.7038 12.5138 22.2044 13.1292 21.8457 13.8264C21.487 14.5237 21.2767 15.2878 21.2282 16.0704C20.8407 18.9664 20.9669 21.908 21.6012 24.7601C23.1619 31.7195 25.8247 38.3848 29.4889 44.5039L29.4865 44.499Z" fill="#00D8FF"/>
</svg>
